<?xml version="1.0" encoding="UTF-8" standalone="no"?>
<!DOCTYPE svg PUBLIC "-//W3C//DTD SVG 1.1//EN"
 "http://www.w3.org/Graphics/SVG/1.1/DTD/svg11.dtd">
<!-- Generated by graphviz version 2.38.0 (20140413.2041)
 -->
<!-- Title: snakemake_dag Pages: 1 -->
<svg width="389pt" height="404pt"
 viewBox="0.00 0.00 389.00 404.00" xmlns="http://www.w3.org/2000/svg" xmlns:xlink="http://www.w3.org/1999/xlink">
<g id="graph0" class="graph" transform="scale(1 1) rotate(0) translate(4 400)">
<title>snakemake_dag</title>
<polygon fill="white" stroke="none" points="-4,4 -4,-400 385,-400 385,4 -4,4"/>
<!-- 0 -->
<g id="node1" class="node"><title>0</title>
<path fill="none" stroke="#56d86b" stroke-width="2" stroke-dasharray="5,2" d="M234,-252C234,-252 121,-252 121,-252 115,-252 109,-246 109,-240 109,-240 109,-228 109,-228 109,-222 115,-216 121,-216 121,-216 234,-216 234,-216 240,-216 246,-222 246,-228 246,-228 246,-240 246,-240 246,-246 240,-252 234,-252"/>
<text text-anchor="middle" x="177.5" y="-231.5" font-family="sans" font-size="10.00">count_individual_variants</text>
</g>
<!-- 9 -->
<g id="node10" class="node"><title>9</title>
<path fill="none" stroke="#5682d8" stroke-width="2" stroke-dasharray="5,2" d="M251.5,-36C251.5,-36 221.5,-36 221.5,-36 215.5,-36 209.5,-30 209.5,-24 209.5,-24 209.5,-12 209.5,-12 209.5,-6 215.5,-0 221.5,-0 221.5,-0 251.5,-0 251.5,-0 257.5,-0 263.5,-6 263.5,-12 263.5,-12 263.5,-24 263.5,-24 263.5,-30 257.5,-36 251.5,-36"/>
<text text-anchor="middle" x="236.5" y="-15.5" font-family="sans" font-size="10.00">all</text>
</g>
<!-- 0&#45;&gt;9 -->
<g id="edge13" class="edge"><title>0&#45;&gt;9</title>
<path fill="none" stroke="grey" stroke-width="2" d="M178.712,-215.586C181.223,-185.507 188.36,-122.218 206.5,-72 209.789,-62.8963 214.561,-53.526 219.337,-45.2439"/>
<polygon fill="grey" stroke="grey" stroke-width="2" points="222.486,-46.7992 224.65,-36.4277 216.49,-43.1859 222.486,-46.7992"/>
</g>
<!-- 1 -->
<g id="node2" class="node"><title>1</title>
<path fill="none" stroke="#d8b456" stroke-width="2" stroke-dasharray="5,2" d="M277,-396C277,-396 208,-396 208,-396 202,-396 196,-390 196,-384 196,-384 196,-372 196,-372 196,-366 202,-360 208,-360 208,-360 277,-360 277,-360 283,-360 289,-366 289,-372 289,-372 289,-384 289,-384 289,-390 283,-396 277,-396"/>
<text text-anchor="middle" x="242.5" y="-375.5" font-family="sans" font-size="10.00">reference_index</text>
</g>
<!-- 7 -->
<g id="node8" class="node"><title>7</title>
<path fill="none" stroke="#56b1d8" stroke-width="2" stroke-dasharray="5,2" d="M173.5,-324C173.5,-324 89.5,-324 89.5,-324 83.5,-324 77.5,-318 77.5,-312 77.5,-312 77.5,-300 77.5,-300 77.5,-294 83.5,-288 89.5,-288 89.5,-288 173.5,-288 173.5,-288 179.5,-288 185.5,-294 185.5,-300 185.5,-300 185.5,-312 185.5,-312 185.5,-318 179.5,-324 173.5,-324"/>
<text text-anchor="middle" x="131.5" y="-303.5" font-family="sans" font-size="10.00">vc_HaplotypeCaller</text>
</g>
<!-- 1&#45;&gt;7 -->
<g id="edge11" class="edge"><title>1&#45;&gt;7</title>
<path fill="none" stroke="grey" stroke-width="2" d="M215.346,-359.876C200.967,-350.808 183.119,-339.552 167.59,-329.759"/>
<polygon fill="grey" stroke="grey" stroke-width="2" points="169.084,-326.564 158.758,-324.19 165.35,-332.484 169.084,-326.564"/>
</g>
<!-- 8 -->
<g id="node9" class="node"><title>8</title>
<path fill="none" stroke="#d88556" stroke-width="2" stroke-dasharray="5,2" d="M369,-324C369,-324 312,-324 312,-324 306,-324 300,-318 300,-312 300,-312 300,-300 300,-300 300,-294 306,-288 312,-288 312,-288 369,-288 369,-288 375,-288 381,-294 381,-300 381,-300 381,-312 381,-312 381,-318 375,-324 369,-324"/>
<text text-anchor="middle" x="340.5" y="-303.5" font-family="sans" font-size="10.00">vc_Freebayes</text>
</g>
<!-- 1&#45;&gt;8 -->
<g id="edge12" class="edge"><title>1&#45;&gt;8</title>
<path fill="none" stroke="grey" stroke-width="2" d="M266.473,-359.876C279.05,-350.893 294.632,-339.763 308.252,-330.034"/>
<polygon fill="grey" stroke="grey" stroke-width="2" points="310.331,-332.85 316.434,-324.19 306.263,-327.154 310.331,-332.85"/>
</g>
<!-- 10 -->
<g id="node11" class="node"><title>10</title>
<path fill="none" stroke="#ced856" stroke-width="2" stroke-dasharray="5,2" d="M269.5,-324C269.5,-324 215.5,-324 215.5,-324 209.5,-324 203.5,-318 203.5,-312 203.5,-312 203.5,-300 203.5,-300 203.5,-294 209.5,-288 215.5,-288 215.5,-288 269.5,-288 269.5,-288 275.5,-288 281.5,-294 281.5,-300 281.5,-300 281.5,-312 281.5,-312 281.5,-318 275.5,-324 269.5,-324"/>
<text text-anchor="middle" x="242.5" y="-303.5" font-family="sans" font-size="10.00">vc_Samtools</text>
</g>
<!-- 1&#45;&gt;10 -->
<g id="edge15" class="edge"><title>1&#45;&gt;10</title>
<path fill="none" stroke="grey" stroke-width="2" d="M242.5,-359.697C242.5,-351.983 242.5,-342.712 242.5,-334.112"/>
<polygon fill="grey" stroke="grey" stroke-width="2" points="246,-334.104 242.5,-324.104 239,-334.104 246,-334.104"/>
</g>
<!-- 2 -->
<g id="node3" class="node"><title>2</title>
<path fill="none" stroke="#d85656" stroke-width="2" stroke-dasharray="5,2" d="M349.5,-108C349.5,-108 227.5,-108 227.5,-108 221.5,-108 215.5,-102 215.5,-96 215.5,-96 215.5,-84 215.5,-84 215.5,-78 221.5,-72 227.5,-72 227.5,-72 349.5,-72 349.5,-72 355.5,-72 361.5,-78 361.5,-84 361.5,-84 361.5,-96 361.5,-96 361.5,-102 355.5,-108 349.5,-108"/>
<text text-anchor="middle" x="288.5" y="-87.5" font-family="sans" font-size="10.00">count_intersected_variants</text>
</g>
<!-- 2&#45;&gt;9 -->
<g id="edge14" class="edge"><title>2&#45;&gt;9</title>
<path fill="none" stroke="grey" stroke-width="2" d="M275.646,-71.6966C269.475,-63.3893 261.963,-53.2771 255.176,-44.1407"/>
<polygon fill="grey" stroke="grey" stroke-width="2" points="257.979,-42.0446 249.206,-36.1043 252.36,-46.2189 257.979,-42.0446"/>
</g>
<!-- 3 -->
<g id="node4" class="node"><title>3</title>
<path fill="none" stroke="#56d8c9" stroke-width="2" stroke-dasharray="5,2" d="M160,-396C160,-396 115,-396 115,-396 109,-396 103,-390 103,-384 103,-384 103,-372 103,-372 103,-366 109,-360 115,-360 115,-360 160,-360 160,-360 166,-360 172,-366 172,-372 172,-372 172,-384 172,-384 172,-390 166,-396 160,-396"/>
<text text-anchor="middle" x="137.5" y="-375.5" font-family="sans" font-size="10.00">index_bam</text>
</g>
<!-- 3&#45;&gt;7 -->
<g id="edge10" class="edge"><title>3&#45;&gt;7</title>
<path fill="none" stroke="grey" stroke-width="2" d="M136.017,-359.697C135.356,-351.983 134.561,-342.712 133.824,-334.112"/>
<polygon fill="grey" stroke="grey" stroke-width="2" points="137.307,-333.769 132.966,-324.104 130.333,-334.367 137.307,-333.769"/>
</g>
<!-- 4 -->
<g id="node5" class="node"><title>4</title>
<path fill="none" stroke="#9fd856" stroke-width="2" stroke-dasharray="5,2" d="M313,-252C313,-252 276,-252 276,-252 270,-252 264,-246 264,-240 264,-240 264,-228 264,-228 264,-222 270,-216 276,-216 276,-216 313,-216 313,-216 319,-216 325,-222 325,-228 325,-228 325,-240 325,-240 325,-246 319,-252 313,-252"/>
<text text-anchor="middle" x="294.5" y="-231.5" font-family="sans" font-size="10.00">index_vcf</text>
</g>
<!-- 5 -->
<g id="node6" class="node"><title>5</title>
<path fill="none" stroke="#70d856" stroke-width="2" stroke-dasharray="5,2" d="M319,-180C319,-180 266,-180 266,-180 260,-180 254,-174 254,-168 254,-168 254,-156 254,-156 254,-150 260,-144 266,-144 266,-144 319,-144 319,-144 325,-144 331,-150 331,-156 331,-156 331,-168 331,-168 331,-174 325,-180 319,-180"/>
<text text-anchor="middle" x="292.5" y="-159.5" font-family="sans" font-size="10.00">intersect_vcf</text>
</g>
<!-- 4&#45;&gt;5 -->
<g id="edge8" class="edge"><title>4&#45;&gt;5</title>
<path fill="none" stroke="grey" stroke-width="2" d="M294.006,-215.697C293.785,-207.983 293.52,-198.712 293.275,-190.112"/>
<polygon fill="grey" stroke="grey" stroke-width="2" points="296.773,-190 292.989,-180.104 289.776,-190.2 296.773,-190"/>
</g>
<!-- 5&#45;&gt;2 -->
<g id="edge4" class="edge"><title>5&#45;&gt;2</title>
<path fill="none" stroke="grey" stroke-width="2" d="M291.511,-143.697C291.07,-135.983 290.541,-126.712 290.049,-118.112"/>
<polygon fill="grey" stroke="grey" stroke-width="2" points="293.542,-117.888 289.477,-108.104 286.554,-118.288 293.542,-117.888"/>
</g>
<!-- 6 -->
<g id="node7" class="node"><title>6</title>
<path fill="none" stroke="#56d89a" stroke-width="2" stroke-dasharray="5,2" d="M73,-396C73,-396 12,-396 12,-396 6,-396 0,-390 0,-384 0,-384 0,-372 0,-372 0,-366 6,-360 12,-360 12,-360 73,-360 73,-360 79,-360 85,-366 85,-372 85,-372 85,-384 85,-384 85,-390 79,-396 73,-396"/>
<text text-anchor="middle" x="42.5" y="-375.5" font-family="sans" font-size="10.00">reference_dict</text>
</g>
<!-- 6&#45;&gt;7 -->
<g id="edge9" class="edge"><title>6&#45;&gt;7</title>
<path fill="none" stroke="grey" stroke-width="2" d="M64.5,-359.697C75.7088,-350.881 89.5021,-340.032 101.654,-330.474"/>
<polygon fill="grey" stroke="grey" stroke-width="2" points="104.057,-333.038 109.753,-324.104 99.7292,-327.535 104.057,-333.038"/>
</g>
<!-- 7&#45;&gt;0 -->
<g id="edge1" class="edge"><title>7&#45;&gt;0</title>
<path fill="none" stroke="grey" stroke-width="2" d="M142.871,-287.697C148.218,-279.559 154.704,-269.689 160.611,-260.701"/>
<polygon fill="grey" stroke="grey" stroke-width="2" points="163.693,-262.384 166.26,-252.104 157.843,-258.539 163.693,-262.384"/>
</g>
<!-- 7&#45;&gt;4 -->
<g id="edge5" class="edge"><title>7&#45;&gt;4</title>
<path fill="none" stroke="grey" stroke-width="2" d="M171.739,-287.887C193.931,-278.43 222.19,-266.355 254.602,-252.377"/>
<polygon fill="grey" stroke="grey" stroke-width="2" points="256.058,-255.56 263.852,-248.384 253.284,-249.133 256.058,-255.56"/>
</g>
<!-- 8&#45;&gt;0 -->
<g id="edge2" class="edge"><title>8&#45;&gt;0</title>
<path fill="none" stroke="grey" stroke-width="2" d="M300.626,-287.876C278.343,-278.307 250.385,-266.3 226.744,-256.148"/>
<polygon fill="grey" stroke="grey" stroke-width="2" points="227.814,-252.798 217.245,-252.068 225.052,-259.23 227.814,-252.798"/>
</g>
<!-- 8&#45;&gt;4 -->
<g id="edge6" class="edge"><title>8&#45;&gt;4</title>
<path fill="none" stroke="grey" stroke-width="2" d="M329.129,-287.697C323.782,-279.559 317.296,-269.689 311.389,-260.701"/>
<polygon fill="grey" stroke="grey" stroke-width="2" points="314.157,-258.539 305.74,-252.104 308.307,-262.384 314.157,-258.539"/>
</g>
<!-- 10&#45;&gt;0 -->
<g id="edge3" class="edge"><title>10&#45;&gt;0</title>
<path fill="none" stroke="grey" stroke-width="2" d="M226.433,-287.697C218.561,-279.22 208.945,-268.864 200.327,-259.583"/>
<polygon fill="grey" stroke="grey" stroke-width="2" points="202.752,-257.051 193.383,-252.104 197.622,-261.814 202.752,-257.051"/>
</g>
<!-- 10&#45;&gt;4 -->
<g id="edge7" class="edge"><title>10&#45;&gt;4</title>
<path fill="none" stroke="grey" stroke-width="2" d="M255.354,-287.697C261.525,-279.389 269.037,-269.277 275.824,-260.141"/>
<polygon fill="grey" stroke="grey" stroke-width="2" points="278.64,-262.219 281.794,-252.104 273.021,-258.045 278.64,-262.219"/>
</g>
</g>
</svg>

